<svg xmlns="http://www.w3.org/2000/svg" width="32.812" height="32.844" viewBox="0 0 32.812 32.844"><defs><style>.cls-1{fill:#27c4b9;fill-rule:evenodd}</style></defs><path id="Award" class="cls-1" d="M865.872 889.157a3.045 3.045 0 0 0-2.545-1.345h-4.5v-5.226a.594.594 0 0 0-.6-.587h-16.858a.594.594 0 0 0-.6.587v5.226h-4.181a3.045 3.045 0 0 0-2.545 1.344 2.879 2.879 0 0 0-.229 2.812l1.673 3.666a6.748 6.748 0 0 0 5.752 3.871 8.917 8.917 0 0 0 7.962 5.919c0 .009-.006.017-.006.025v4.691h-1.253a2.329 2.329 0 0 0-2.358 2.295v1.222h-3.612a.587.587 0 1 0 0 1.173h15.65a.587.587 0 1 0 0-1.173h-3.612v-1.222a2.33 2.33 0 0 0-2.358-2.295H850.4v-4.716a8.918 8.918 0 0 0 7.952-5.893 6.756 6.756 0 0 0 6.082-3.9l1.673-3.666a2.879 2.879 0 0 0-.235-2.808zm-14.22 22.155a1.14 1.14 0 0 1 1.154 1.123v1.222h-6.019v-1.222a1.14 1.14 0 0 1 1.154-1.123h3.711zm-15.065-16.154l-1.674-3.666a1.718 1.718 0 0 1 .138-1.7 1.815 1.815 0 0 1 1.536-.811h4.181v7.754a8.51 8.51 0 0 0 .153 1.574 5.526 5.526 0 0 1-4.334-3.151zm21.034 1.58a7.652 7.652 0 0 1-7.741 7.539h-.168a7.652 7.652 0 0 1-7.741-7.539v-13.566h15.65v13.566zm7.379-5.246l-1.673 3.666a5.542 5.542 0 0 1-4.659 3.175 8.474 8.474 0 0 0 .157-1.595v-7.754h4.5a1.815 1.815 0 0 1 1.535.811 1.716 1.716 0 0 1 .14 1.697zm-20.47-3.483a.594.594 0 0 1-.6-.587v-2.251a.6.6 0 0 1 1.2 0v2.251a.6.6 0 0 1-.6.587zm5.115 14.728a.626.626 0 0 1-.121-.011 6.894 6.894 0 0 1-5.6-6.687v-5.246a.6.6 0 0 1 1.2 0v5.246a5.707 5.707 0 0 0 4.633 5.537.588.588 0 0 1 .469.693.6.6 0 0 1-.581.468z" transform="translate(-833.563 -882)"/></svg>