<svg xmlns="http://www.w3.org/2000/svg" width="15" height="12" viewBox="0 0 15 12"><defs><style>.cls-1{fill:#27c4b9;fill-rule:evenodd;filter:url(#filter)}</style><filter id="filter" x="1127" y="1993" width="15" height="12" filterUnits="userSpaceOnUse"><feFlood result="flood" flood-color="#27c4b9"/><feComposite result="composite" operator="in" in2="SourceGraphic"/><feBlend result="blend" in2="SourceGraphic"/></filter></defs><path id="Crown" class="cls-1" d="M1128.02 1995.01a1.018 1.018 0 0 1-.72-1.74 1.065 1.065 0 0 1 1.45 0 1.014 1.014 0 0 1 0 1.44 1.046 1.046 0 0 1-.73.3zm0-1.54a.523.523 0 0 0-.37.89.544.544 0 0 0 .75 0 .531.531 0 0 0 0-.74.52.52 0 0 0-.38-.15zm6.51 1.54a1.046 1.046 0 0 1-.73-.3 1.014 1.014 0 0 1 0-1.44 1.065 1.065 0 0 1 1.45 0 1.02 1.02 0 0 1-.72 1.74zm0-1.54a.537.537 0 0 0-.38.15.531.531 0 0 0 0 .74.544.544 0 0 0 .75 0 .52.52 0 0 0-.37-.89zm6.45 1.54a1.018 1.018 0 0 1-.72-1.74 1.065 1.065 0 0 1 1.45 0 1.014 1.014 0 0 1 0 1.44 1.046 1.046 0 0 1-.73.3zm0-1.54a.514.514 0 0 0-.37.15.508.508 0 0 0 0 .74.544.544 0 0 0 .75 0 .531.531 0 0 0 0-.74.537.537 0 0 0-.38-.15zm.06 9.06h-13.03a.435.435 0 0 1-.44-.43v-5.67a.444.444 0 0 1 .44-.44.452.452 0 0 1 .34.17l2.59 3.29 3.26-3.57a.454.454 0 0 1 .66.02l2.96 3.55 2.9-3.34a.407.407 0 0 1 .32-.15.435.435 0 0 1 .44.43v5.71a.435.435 0 0 1-.44.43zm-12.97-.49h12.91v-5.49l-2.83 3.27a.445.445 0 0 1-.66 0l-2.97-3.55-3.26 3.56a.457.457 0 0 1-.67-.02l-2.52-3.21v5.44zm11.71 2.95h-10.51a1.694 1.694 0 0 1-1.7-1.68.29.29 0 0 1 .25-.28h13.41a.246.246 0 0 1 .25.24 1.7 1.7 0 0 1-1.7 1.72zm-11.69-1.47a1.2 1.2 0 0 0 1.18.98h10.51a1.186 1.186 0 0 0 1.18-.98h-12.87z" transform="translate(-1127 -1993)"/></svg>