<svg xmlns="http://www.w3.org/2000/svg" width="41" height="34" viewBox="0 0 41 34"><defs><style>.cls-1{fill:#27c4b9;fill-rule:evenodd}</style></defs><path id="Crown" class="cls-1" d="M832.8 264.72a2.732 2.732 0 0 1-1.978-.842 2.928 2.928 0 0 1 0-4.064 2.809 2.809 0 0 1 3.956 0 2.929 2.929 0 0 1 0 4.065 2.742 2.742 0 0 1-1.978.841zm0-4.354a1.411 1.411 0 0 0-1.019.433 1.507 1.507 0 0 0 0 2.094 1.446 1.446 0 0 0 2.037 0 1.507 1.507 0 0 0 0-2.094 1.414 1.414 0 0 0-1.018-.433zm17.764 4.354a2.736 2.736 0 0 1-1.978-.842 2.928 2.928 0 0 1 0-4.064 2.807 2.807 0 0 1 3.956 0 2.928 2.928 0 0 1 0 4.064 2.739 2.739 0 0 1-1.979.842zm0-4.354a1.412 1.412 0 0 0-1.019.433 1.507 1.507 0 0 0 0 2.094 1.448 1.448 0 0 0 2.038 0 1.511 1.511 0 0 0 0-2.1 1.414 1.414 0 0 0-1.02-.427zm17.636 4.354a2.736 2.736 0 0 1-1.978-.842 2.928 2.928 0 0 1 0-4.064 2.807 2.807 0 0 1 3.956 0 2.928 2.928 0 0 1 0 4.064 2.739 2.739 0 0 1-1.978.842zm0-4.354a1.412 1.412 0 0 0-1.019.433 1.507 1.507 0 0 0 0 2.094 1.448 1.448 0 0 0 2.038 0 1.511 1.511 0 0 0 0-2.1 1.414 1.414 0 0 0-1.019-.427zm.169 25.673h-35.613a1.205 1.205 0 0 1-1.187-1.219v-16.077a1.208 1.208 0 0 1 1.192-1.221 1.166 1.166 0 0 1 .931.47l7.073 9.3 8.9-10.089a1.2 1.2 0 0 1 1.795.042l8.1 10.048 7.908-9.454a1.163 1.163 0 0 1 .894-.426 1.209 1.209 0 0 1 1.193 1.221v16.186a1.205 1.205 0 0 1-1.186 1.219zm-35.443-1.393H868.2v-15.541l-7.741 9.254a1.2 1.2 0 0 1-1.814-.017l-8.105-10.054-8.906 10.095a1.2 1.2 0 0 1-1.814-.069l-6.894-9.066v15.4zm32 8.362h-28.721a4.706 4.706 0 0 1-4.636-4.762.8.8 0 0 1 .678-.813h36.631a.688.688 0 0 1 .679.7 4.734 4.734 0 0 1-4.636 4.875zm-31.932-4.181a3.3 3.3 0 0 0 3.216 2.787h28.716a3.31 3.31 0 0 0 3.23-2.787h-35.167z" transform="translate(-830 -259)"/></svg>