<svg xmlns="http://www.w3.org/2000/svg" width="33.875" height="28.19" viewBox="0 0 33.875 28.19"><defs><style>.cls-1{fill:#27c4b9;fill-rule:evenodd;filter:url(#filter)}</style><filter id="filter" x="708.219" y="1617.94" width="33.875" height="28.19" filterUnits="userSpaceOnUse"><feFlood result="flood" flood-color="#27c4b9"/><feComposite result="composite" operator="in" in2="SourceGraphic"/><feBlend result="blend" in2="SourceGraphic"/></filter></defs><path id="Dashboard" class="cls-1" d="M724.584 1641.82a4.805 4.805 0 0 1-3.13-1.16 4.953 4.953 0 0 1-.546-6.91c1.558-1.85 8.644-4.36 9.446-4.64a.713.713 0 0 1 .688.13.727.727 0 0 1 .237.67c-.144.85-1.46 8.34-3.017 10.19a4.773 4.773 0 0 1-3.678 1.72zm5.085-10.94c-2.961 1.1-6.813 2.76-7.686 3.8a3.44 3.44 0 1 0 5.2 4.5c.877-1.04 1.886-5.17 2.486-8.3zm8.522 15.23h-26.074a.7.7 0 0 1-.576-.3 18.4 18.4 0 0 1-3.333-10.44 16.951 16.951 0 1 1 33.891-.09 18.539 18.539 0 0 1-3.331 10.53.7.7 0 0 1-.577.3zm-25.705-1.43h25.336a17.065 17.065 0 0 0 2.865-9.4 15.539 15.539 0 1 0-31.066.09 16.922 16.922 0 0 0 2.865 9.31zm1.474-9.72a.712.712 0 0 1-.706-.72 11.9 11.9 0 1 1 23.8-.04.707.707 0 1 1-1.413 0 10.49 10.49 0 1 0-20.975.04.711.711 0 0 1-.706.72z" transform="translate(-708.219 -1617.94)"/></svg>