<svg xmlns="http://www.w3.org/2000/svg" width="40.937" height="33.87" viewBox="0 0 40.937 33.87"><defs><style>.cls-1{fill:#27c4b9;fill-rule:evenodd;filter:url(#filter)}</style><filter id="filter" x="294.969" y="1615.13" width="40.937" height="33.87" filterUnits="userSpaceOnUse"><feFlood result="flood" flood-color="#27c4b9"/><feComposite result="composite" operator="in" in2="SourceGraphic"/><feBlend result="blend" in2="SourceGraphic"/></filter></defs><path id="Glasses" class="cls-1" d="M335.483 1637.23v-21.38a.711.711 0 0 0-.71-.71h-6.4a.712.712 0 0 0-.711.71.7.7 0 0 0 .711.7h5.684v17.98a9.1 9.1 0 0 0-16.045 3.18h-5.142a9.111 9.111 0 0 0-15.764-3.54v-17.62h5.694a.7.7 0 0 0 .711-.7.712.712 0 0 0-.711-.71h-6.4a.712.712 0 0 0-.711.71v20.45a.729.729 0 0 0 .024.12 8.912 8.912 0 0 0-.735 3.55 9.1 9.1 0 0 0 17.968 1.97h5a9.1 9.1 0 0 0 17.968-1.97 8.938 8.938 0 0 0-.431-2.74zm-31.406 10.36a7.62 7.62 0 1 1 7.676-7.62 7.658 7.658 0 0 1-7.676 7.62zm9.068-7.06c.012-.18.029-.37.029-.56 0-.29-.017-.57-.043-.85h4.631c-.027.28-.043.56-.043.85 0 .19.017.38.028.56h-4.6zm13.671 7.06a7.62 7.62 0 1 1 7.676-7.62 7.658 7.658 0 0 1-7.676 7.62zm-26.716-11.02a.725.725 0 0 0-1 0 .7.7 0 0 0 0 1l7.25 7.2a.709.709 0 1 0 1-1zm6.035 3.76a.731.731 0 0 0 1 0 .706.706 0 0 0 0-1l-2.777-2.76a.723.723 0 0 0-1 0 .7.7 0 0 0 0 1zm22.739 0a.731.731 0 0 0 1 0 .706.706 0 0 0 0-1l-2.777-2.76a.723.723 0 0 0-1 0 .7.7 0 0 0 0 1zm-6.035-3.76a.725.725 0 0 0-1 0 .7.7 0 0 0 0 1l7.25 7.2a.709.709 0 1 0 1-1z" transform="translate(-294.969 -1615.13)"/></svg>