<svg xmlns="http://www.w3.org/2000/svg" width="29.156" height="45.13" viewBox="0 0 29.156 45.13"><defs><style>.cls-1{fill:#1a1a1a;fill-rule:evenodd}</style></defs><path id="Idea" class="cls-1" d="M315.226 1423.01a.722.722 0 0 0 1.018 0l3.043-3.03 2.729 2.72a.722.722 0 0 0 1.018 0 .71.71 0 0 0 0-1.01l-3.238-3.23a.74.74 0 0 0-1.017 0l-3.044 3.03-3.359-3.34a.721.721 0 0 0-1.017 0l-3.687 3.67a.71.71 0 0 0 0 1.01.721.721 0 0 0 1.017 0l3.179-3.16zm8.041 10.73v-1.52a4.871 4.871 0 0 1 1.672-3.61 14.479 14.479 0 0 0-9.766-25.25 15.625 15.625 0 0 0-1.663.09 14.6 14.6 0 0 0-12.818 12.78 14.406 14.406 0 0 0 4.977 12.59 4.889 4.889 0 0 1 1.769 3.69v1.23a3.633 3.633 0 0 0 1.216 2.7 11.256 11.256 0 0 1-1.328 5.85 2.538 2.538 0 0 0 2.546 2.53h1.15a4.053 4.053 0 0 0 4.026 3.64h.61a4.053 4.053 0 0 0 4.026-3.64h1.149a2.526 2.526 0 0 0 1.767-4.35 2.508 2.508 0 0 0-.549-4.03 3.633 3.633 0 0 0 1.216-2.7zm-16.659-6a12.9 12.9 0 0 1-4.485-11.36 13.113 13.113 0 0 1 11.546-11.51c.5-.05 1.006-.08 1.5-.08a13.045 13.045 0 0 1 8.8 22.75 6.336 6.336 0 0 0-2.147 4.68v1.52a2.242 2.242 0 0 1-2.248 2.23h-8.454a2.242 2.242 0 0 1-2.249-2.23v-1.23a6.3 6.3 0 0 0-2.263-4.77zm9.05 19.29h-.61a2.632 2.632 0 0 1-2.6-2.21h5.8a2.632 2.632 0 0 1-2.59 2.21zm6.282-4.74a1.1 1.1 0 0 1-1.107 1.1h-10.961a1.1 1.1 0 1 1 0-2.2h10.961a1.1 1.1 0 0 1 1.107 1.1zm-12.068-2.53a1.105 1.105 0 1 1 0-2.21h10.961a1.105 1.105 0 1 1 0 2.21h-10.961z" transform="translate(-300.594 -1403.34)"/></svg>