<svg xmlns="http://www.w3.org/2000/svg" width="39.53" height="39.5" viewBox="0 0 39.53 39.5"><defs><style>.cls-1{fill:#27c4b9;fill-rule:evenodd;filter:url(#filter)}</style><filter id="filter" x="1118.5" y="1406" width="39.53" height="39.5" filterUnits="userSpaceOnUse"><feFlood result="flood" flood-color="#27c4b9"/><feComposite result="composite" operator="in" in2="SourceGraphic"/><feBlend result="blend" in2="SourceGraphic"/></filter></defs><path id="Music" class="cls-1" d="M1157.3 1420.34h-7.51v-6.42a.715.715 0 0 0-.72-.71h-21.61a.715.715 0 0 0-.72.71v6.42h-3.71v-13.64a.71.71 0 0 0-1.42 0v13.64h-2.39a.713.713 0 0 0-.71.71v23.75a.7.7 0 0 0 .71.7h38.08a.707.707 0 0 0 .72-.7v-23.75a.715.715 0 0 0-.72-.71zm-29.13-5.72h20.19v5.72h-20.19v-5.72zm28.42 29.47h-36.65v-22.34h36.65v22.34zm-9.4-15.75a7.171 7.171 0 1 0 7.26 7.17 7.221 7.221 0 0 0-7.26-7.17zm0 12.93a5.76 5.76 0 1 1 5.83-5.76 5.8 5.8 0 0 1-5.83 5.76zm-24.54-16.46a.715.715 0 0 0 .72.71h28.94a.71.71 0 0 0 0-1.42h-28.94a.715.715 0 0 0-.72.71zm13.21 7.29h-12.49a.707.707 0 0 0-.72.7v7.76a.715.715 0 0 0 .72.71h12.49a.713.713 0 0 0 .71-.71v-7.76a.7.7 0 0 0-.71-.7zm-.72 7.76h-11.06v-6.35h11.06v6.35zm12.05-7.17a2.82 2.82 0 1 0 2.86 2.82 2.838 2.838 0 0 0-2.86-2.82z" transform="translate(-1118.5 -1406)"/></svg>