<svg xmlns="http://www.w3.org/2000/svg" width="30.781" height="29.312" viewBox="0 0 30.781 29.312"><defs><style>.cls-1{fill:#27c4b9;fill-rule:evenodd}</style></defs><path id="Photo" class="cls-1" d="M482.238 892.816a1.762 1.762 0 1 1-1.762-1.729 1.746 1.746 0 0 1 1.762 1.729zM470.4 909.081a5.214 5.214 0 1 1 5.314-5.213 5.27 5.27 0 0 1-5.314 5.213zm0-9.265a4.052 4.052 0 1 0 4.129 4.052 4.095 4.095 0 0 0-4.129-4.052zm12.733-12.074h-8v-1.549a2.545 2.545 0 0 0-2.567-2.518h-4.343a2.545 2.545 0 0 0-2.566 2.518v1.549h-7.994a2.644 2.644 0 0 0-2.663 2.615v16.852a2.644 2.644 0 0 0 2.665 2.615h5.4a.607.607 0 0 0 .238-.05 9.407 9.407 0 0 0 14.2 0 .582.582 0 0 0 .244.055h5.386a2.644 2.644 0 0 0 2.665-2.615v-16.857a2.644 2.644 0 0 0-2.668-2.615zm-16.286-1.549a1.37 1.37 0 0 1 1.381-1.356h4.343a1.37 1.37 0 0 1 1.382 1.356v1.549h-7.106v-1.549zm3.553 25.653a7.98 7.98 0 1 1 8.131-7.978 8.065 8.065 0 0 1-8.131 7.978zm14.213-4.637a1.469 1.469 0 0 1-1.48 1.453h-4.816a8.95 8.95 0 0 0 1.4-4.794 9.318 9.318 0 0 0-18.632 0 8.95 8.95 0 0 0 1.4 4.794h-4.815a1.469 1.469 0 0 1-1.481-1.453v-16.852a1.468 1.468 0 0 1 1.481-1.452h25.46a1.468 1.468 0 0 1 1.48 1.452v16.852zm-23.392-12.493h-1.777a.881.881 0 0 1-.888-.872V892.1a.88.88 0 0 1 .888-.872h1.777a.88.88 0 0 1 .888.872v1.743a.881.881 0 0 1-.891.873z" transform="translate(-455 -883.688)"/></svg>