<svg xmlns="http://www.w3.org/2000/svg" width="36.719" height="32.43" viewBox="0 0 36.719 32.43"><defs><style>.cls-1{fill:#27c4b9;fill-rule:evenodd;filter:url(#filter)}</style><filter id="filter" x="706.781" y="1409.88" width="36.719" height="32.43" filterUnits="userSpaceOnUse"><feFlood result="flood" flood-color="#27c4b9"/><feComposite result="composite" operator="in" in2="SourceGraphic"/><feBlend result="blend" in2="SourceGraphic"/></filter></defs><path id="Portfolio" class="cls-1" d="M739.864 1418.34h-4.825v-5.41a3.059 3.059 0 0 0-3.06-3.05h-13.65a3.059 3.059 0 0 0-3.06 3.05v5.41h-4.825a3.647 3.647 0 0 0-3.648 3.64v16.7a3.647 3.647 0 0 0 3.648 3.64h29.42a3.647 3.647 0 0 0 3.648-3.64v-16.7a3.647 3.647 0 0 0-3.648-3.64zm-23.183-5.41a1.642 1.642 0 0 1 1.648-1.64h13.65a1.642 1.642 0 0 1 1.648 1.64v5.41h-16.946v-5.41zm25.418 25.75a2.234 2.234 0 0 1-2.235 2.23h-29.42a2.235 2.235 0 0 1-2.236-2.23v-4.82h12.709v2.11a.71.71 0 0 0 .707.71h7.06a.709.709 0 0 0 .706-.71v-2.11h12.71v4.82zm-14.121-6.23v2.82h-5.648v-5.64h5.648v2.82zm14.121 0H729.39v-3.53a.7.7 0 0 0-.706-.7h-7.06a.7.7 0 0 0-.707.7v3.53h-12.709v-10.47a2.235 2.235 0 0 1 2.236-2.23h29.42a2.234 2.234 0 0 1 2.235 2.23v10.47z" transform="translate(-706.781 -1409.88)"/></svg>