<svg xmlns="http://www.w3.org/2000/svg" width="33.88" height="33.63" viewBox="0 0 33.88 33.63"><defs><style>.cls-1{fill:#1a1a1a;fill-rule:evenodd}</style></defs><path id="Settings" class="cls-1" d="M1138.71 1640.4a7.78 7.78 0 1 1 7.75-7.78 7.776 7.776 0 0 1-7.75 7.78zm0-14.18a6.405 6.405 0 1 0 6.38 6.4 6.4 6.4 0 0 0-6.38-6.4zm-3.77 22.67a.772.772 0 0 1-.15-.02 16.871 16.871 0 0 1-6.8-3.28.659.659 0 0 1-.26-.47.71.71 0 0 1 .15-.52l.97-1.21a14.959 14.959 0 0 1-3.23-4.06l-1.4.68a.692.692 0 0 1-.94-.32 17.051 17.051 0 0 1-1.69-7.38.717.717 0 0 1 .7-.71h1.54a14.748 14.748 0 0 1 1.16-5.06l-1.41-.68a.677.677 0 0 1-.36-.4.721.721 0 0 1 .03-.54 17.332 17.332 0 0 1 4.69-5.92.681.681 0 0 1 .98.11l.97 1.21a14.761 14.761 0 0 1 4.65-2.26l-.34-1.52a.722.722 0 0 1 .08-.54.736.736 0 0 1 .44-.31 17.236 17.236 0 0 1 7.53-.02.694.694 0 0 1 .53.84l-.33 1.52a14.651 14.651 0 0 1 4.66 2.24l.96-1.22a.7.7 0 0 1 .47-.26.737.737 0 0 1 .52.14 17.251 17.251 0 0 1 4.72 5.9.71.71 0 0 1-.32.94l-1.4.69a14.829 14.829 0 0 1 1.18 5.07l1.53-.02h.01a.768.768 0 0 1 .5.2.744.744 0 0 1 .2.51 17.023 17.023 0 0 1-1.67 7.44.71.71 0 0 1-.4.36.721.721 0 0 1-.54-.03l-1.4-.68a14.923 14.923 0 0 1-3.22 4.06l.97 1.21a.71.71 0 0 1-.11.99 17.065 17.065 0 0 1-6.79 3.3.7.7 0 0 1-.84-.53l-.34-1.52a14.26 14.26 0 0 1-5.17 0l-.34 1.52a.736.736 0 0 1-.31.44.758.758 0 0 1-.38.11zm-5.52-3.97a15.635 15.635 0 0 0 5 2.41l.33-1.49a.7.7 0 0 1 .31-.44.708.708 0 0 1 .53-.09 13.008 13.008 0 0 0 5.92-.01.708.708 0 0 1 .53.09.7.7 0 0 1 .31.44l.34 1.49a15.61 15.61 0 0 0 4.99-2.42l-.95-1.19a.711.711 0 0 1 .11-.99 13.5 13.5 0 0 0 3.69-4.65.693.693 0 0 1 .93-.33l1.38.67a15.612 15.612 0 0 0 1.23-5.48l-1.5.02h-.01a.68.68 0 0 1-.49-.2.672.672 0 0 1-.21-.5 13.289 13.289 0 0 0-1.36-5.82.7.7 0 0 1 .33-.94l1.37-.67a15.807 15.807 0 0 0-3.47-4.33l-.95 1.19a.691.691 0 0 1-.98.12 13.124 13.124 0 0 0-5.34-2.57.694.694 0 0 1-.53-.84l.33-1.49a15.861 15.861 0 0 0-5.54.02l.35 1.49a.757.757 0 0 1-.09.53.7.7 0 0 1-.44.31 13.452 13.452 0 0 0-5.33 2.59.688.688 0 0 1-.98-.1l-.95-1.19a15.975 15.975 0 0 0-3.45 4.35l1.38.67a.71.71 0 0 1 .33.94 13.2 13.2 0 0 0-1.32 5.76.731.731 0 0 1-.7.74h-1.51a15.521 15.521 0 0 0 1.24 5.42l1.37-.66a.681.681 0 0 1 .54-.04.71.71 0 0 1 .4.36 13.62 13.62 0 0 0 3.69 4.65.707.707 0 0 1 .27.47.758.758 0 0 1-.15.52z" transform="translate(-1121.59 -1615.28)"/></svg>