<svg width="290" height="202" viewBox="0 0 290 202" xmlns="http://www.w3.org/2000/svg" xmlns:xlink="http://www.w3.org/1999/xlink"><view id="Award" viewBox="40.67 0 51.97 52"/><svg width="51.97" height="52" viewBox="-10.26 -10.26 53.34 53.37" x="40.67"><defs><style>.acls-1{fill:#27c4b9;fill-rule:evenodd}</style></defs><path id="aAward" class="acls-1" d="M865.872 889.157a3.045 3.045 0 0 0-2.545-1.345h-4.5v-5.226a.594.594 0 0 0-.6-.587h-16.858a.594.594 0 0 0-.6.587v5.226h-4.181a3.045 3.045 0 0 0-2.545 1.344 2.879 2.879 0 0 0-.229 2.812l1.673 3.666a6.748 6.748 0 0 0 5.752 3.871 8.917 8.917 0 0 0 7.962 5.919c0 .009-.006.017-.006.025v4.691h-1.253a2.329 2.329 0 0 0-2.358 2.295v1.222h-3.612a.587.587 0 1 0 0 1.173h15.65a.587.587 0 1 0 0-1.173h-3.612v-1.222a2.33 2.33 0 0 0-2.358-2.295H850.4v-4.716a8.918 8.918 0 0 0 7.952-5.893 6.756 6.756 0 0 0 6.082-3.9l1.673-3.666a2.879 2.879 0 0 0-.235-2.808zm-14.22 22.155a1.14 1.14 0 0 1 1.154 1.123v1.222h-6.019v-1.222a1.14 1.14 0 0 1 1.154-1.123h3.711zm-15.065-16.154l-1.674-3.666a1.718 1.718 0 0 1 .138-1.7 1.815 1.815 0 0 1 1.536-.811h4.181v7.754a8.51 8.51 0 0 0 .153 1.574 5.526 5.526 0 0 1-4.334-3.151zm21.034 1.58a7.652 7.652 0 0 1-7.741 7.539h-.168a7.652 7.652 0 0 1-7.741-7.539v-13.566h15.65v13.566zm7.379-5.246l-1.673 3.666a5.542 5.542 0 0 1-4.659 3.175 8.474 8.474 0 0 0 .157-1.595v-7.754h4.5a1.815 1.815 0 0 1 1.535.811 1.716 1.716 0 0 1 .14 1.697zm-20.47-3.483a.594.594 0 0 1-.6-.587v-2.251a.6.6 0 0 1 1.2 0v2.251a.6.6 0 0 1-.6.587zm5.115 14.728a.626.626 0 0 1-.121-.011 6.894 6.894 0 0 1-5.6-6.687v-5.246a.6.6 0 0 1 1.2 0v5.246a5.707 5.707 0 0 0 4.633 5.537.588.588 0 0 1 .469.693.6.6 0 0 1-.581.468z" transform="translate(-833.563 -882)"/></svg><view id="Book" viewBox="102.78 150.23999999999998 48.44 49.31"/><svg width="48.44" height="49.31" viewBox="-10 -10 48.44 49.31" x="102.78" y="150.24"><defs><style>.bcls-1{fill:#27c4b9;fill-rule:evenodd}</style></defs><path id="bBook" class="bcls-1" d="M1250.74 911.1l-.28-.311a3.153 3.153 0 0 1 0-4.269l.37-.4a.034.034 0 0 1 .01-.029.621.621 0 0 0 .11-.23c.01-.027.01-.049.02-.075s.01-.038.01-.058v-18.139a4.754 4.754 0 0 0-4.77-4.727h-14.76a.585.585 0 0 0-.59.586v21.692h-1.19v-21.692a.585.585 0 0 0-.59-.586h-2.18a4.312 4.312 0 0 0-4.33 4.287v21.537a3.509 3.509 0 0 0 3.52 3.489h24.32a.585.585 0 0 0 .59-.587.575.575 0 0 0-.26-.488zm-11.6-27.069v9.277l-1.89-2.478a.6.6 0 0 0-.95 0l-1.89 2.478v-9.277h4.73zm-7.1 0h1.18v11.022a.6.6 0 0 0 1.07.354l2.49-3.252 2.48 3.252a.6.6 0 0 0 .47.232.557.557 0 0 0 .19-.03.594.594 0 0 0 .41-.556v-11.019h5.88a3.574 3.574 0 0 1 3.58 3.555v17.551h-17.75v-21.106zm-5.14 0h1.59v21.109h-2.4a3.462 3.462 0 0 0-2.33.9v-18.9a3.132 3.132 0 0 1 3.14-3.106zm-.81 26.969a2.345 2.345 0 0 1 0-4.69h23.05a4.341 4.341 0 0 0-.7 2.345h-17.58a.587.587 0 1 0 0 1.173h17.75a4.112 4.112 0 0 0 .53 1.172h-23.05z" transform="translate(-1222.56 -882.875)"/></svg><view id="Crown" viewBox="92.64 0 52 46.54"/><svg width="52" height="46.54" viewBox="-12.81 -12.81 66.63 59.63" x="92.64"><defs><style>.ccls-1{fill:#27c4b9;fill-rule:evenodd}</style></defs><path id="cCrown" class="ccls-1" d="M832.8 264.72a2.732 2.732 0 0 1-1.978-.842 2.928 2.928 0 0 1 0-4.064 2.809 2.809 0 0 1 3.956 0 2.929 2.929 0 0 1 0 4.065 2.742 2.742 0 0 1-1.978.841zm0-4.354a1.411 1.411 0 0 0-1.019.433 1.507 1.507 0 0 0 0 2.094 1.446 1.446 0 0 0 2.037 0 1.507 1.507 0 0 0 0-2.094 1.414 1.414 0 0 0-1.018-.433zm17.764 4.354a2.736 2.736 0 0 1-1.978-.842 2.928 2.928 0 0 1 0-4.064 2.807 2.807 0 0 1 3.956 0 2.928 2.928 0 0 1 0 4.064 2.739 2.739 0 0 1-1.979.842zm0-4.354a1.412 1.412 0 0 0-1.019.433 1.507 1.507 0 0 0 0 2.094 1.448 1.448 0 0 0 2.038 0 1.511 1.511 0 0 0 0-2.1 1.414 1.414 0 0 0-1.02-.427zm17.636 4.354a2.736 2.736 0 0 1-1.978-.842 2.928 2.928 0 0 1 0-4.064 2.807 2.807 0 0 1 3.956 0 2.928 2.928 0 0 1 0 4.064 2.739 2.739 0 0 1-1.978.842zm0-4.354a1.412 1.412 0 0 0-1.019.433 1.507 1.507 0 0 0 0 2.094 1.448 1.448 0 0 0 2.038 0 1.511 1.511 0 0 0 0-2.1 1.414 1.414 0 0 0-1.019-.427zm.169 25.673h-35.613a1.205 1.205 0 0 1-1.187-1.219v-16.077a1.208 1.208 0 0 1 1.192-1.221 1.166 1.166 0 0 1 .931.47l7.073 9.3 8.9-10.089a1.2 1.2 0 0 1 1.795.042l8.1 10.048 7.908-9.454a1.163 1.163 0 0 1 .894-.426 1.209 1.209 0 0 1 1.193 1.221v16.186a1.205 1.205 0 0 1-1.186 1.219zm-35.443-1.393H868.2v-15.541l-7.741 9.254a1.2 1.2 0 0 1-1.814-.017l-8.105-10.054-8.906 10.095a1.2 1.2 0 0 1-1.814-.069l-6.894-9.066v15.4zm32 8.362h-28.721a4.706 4.706 0 0 1-4.636-4.762.8.8 0 0 1 .678-.813h36.631a.688.688 0 0 1 .679.7 4.734 4.734 0 0 1-4.636 4.875zm-31.932-4.181a3.3 3.3 0 0 0 3.216 2.787h28.716a3.31 3.31 0 0 0 3.23-2.787h-35.167z" transform="translate(-830 -259)"/></svg><view id="CrownSmall" viewBox="196.64 52 35 32"/><svg width="35" height="32" viewBox="-10 -10 35 32" x="196.64" y="52"><defs><style>.dcls-1{fill:#27c4b9;fill-rule:evenodd;filter:url(#dfilter)}</style><filter id="dfilter" x="1127" y="1993" width="15" height="12" filterUnits="userSpaceOnUse"><feFlood result="flood" flood-color="#27c4b9"/><feComposite result="composite" operator="in" in2="SourceGraphic"/><feBlend result="blend" in2="SourceGraphic"/></filter></defs><path id="dCrown" class="dcls-1" d="M1128.02 1995.01a1.018 1.018 0 0 1-.72-1.74 1.065 1.065 0 0 1 1.45 0 1.014 1.014 0 0 1 0 1.44 1.046 1.046 0 0 1-.73.3zm0-1.54a.523.523 0 0 0-.37.89.544.544 0 0 0 .75 0 .531.531 0 0 0 0-.74.52.52 0 0 0-.38-.15zm6.51 1.54a1.046 1.046 0 0 1-.73-.3 1.014 1.014 0 0 1 0-1.44 1.065 1.065 0 0 1 1.45 0 1.02 1.02 0 0 1-.72 1.74zm0-1.54a.537.537 0 0 0-.38.15.531.531 0 0 0 0 .74.544.544 0 0 0 .75 0 .52.52 0 0 0-.37-.89zm6.45 1.54a1.018 1.018 0 0 1-.72-1.74 1.065 1.065 0 0 1 1.45 0 1.014 1.014 0 0 1 0 1.44 1.046 1.046 0 0 1-.73.3zm0-1.54a.514.514 0 0 0-.37.15.508.508 0 0 0 0 .74.544.544 0 0 0 .75 0 .531.531 0 0 0 0-.74.537.537 0 0 0-.38-.15zm.06 9.06h-13.03a.435.435 0 0 1-.44-.43v-5.67a.444.444 0 0 1 .44-.44.452.452 0 0 1 .34.17l2.59 3.29 3.26-3.57a.454.454 0 0 1 .66.02l2.96 3.55 2.9-3.34a.407.407 0 0 1 .32-.15.435.435 0 0 1 .44.43v5.71a.435.435 0 0 1-.44.43zm-12.97-.49h12.91v-5.49l-2.83 3.27a.445.445 0 0 1-.66 0l-2.97-3.55-3.26 3.56a.457.457 0 0 1-.67-.02l-2.52-3.21v5.44zm11.71 2.95h-10.51a1.694 1.694 0 0 1-1.7-1.68.29.29 0 0 1 .25-.28h13.41a.246.246 0 0 1 .25.24 1.7 1.7 0 0 1-1.7 1.72zm-11.69-1.47a1.2 1.2 0 0 0 1.18.98h10.51a1.186 1.186 0 0 0 1.18-.98h-12.87z" transform="translate(-1127 -1993)"/></svg><view id="Dashboard" viewBox="52 52 52 46.63"/><svg width="52" height="46.63" viewBox="-10.59 -10.59 55.05 49.36" x="52" y="52"><defs><style>.ecls-1{fill:#5c5d5d;fill-rule:evenodd;filter:url(#efilter)}</style><filter id="efilter" x="708.219" y="1617.94" width="33.875" height="28.19" filterUnits="userSpaceOnUse"><feFlood result="flood" flood-color="#1a1a1a"/><feComposite result="composite" operator="in" in2="SourceGraphic"/><feBlend result="blend" in2="SourceGraphic"/></filter></defs><path id="eDashboard" class="ecls-1" d="M724.584 1641.82a4.805 4.805 0 0 1-3.13-1.16 4.953 4.953 0 0 1-.546-6.91c1.558-1.85 8.644-4.36 9.446-4.64a.713.713 0 0 1 .688.13.727.727 0 0 1 .237.67c-.144.85-1.46 8.34-3.017 10.19a4.773 4.773 0 0 1-3.678 1.72zm5.085-10.94c-2.961 1.1-6.813 2.76-7.686 3.8a3.44 3.44 0 1 0 5.2 4.5c.877-1.04 1.886-5.17 2.486-8.3zm8.522 15.23h-26.074a.7.7 0 0 1-.576-.3 18.4 18.4 0 0 1-3.333-10.44 16.951 16.951 0 1 1 33.891-.09 18.539 18.539 0 0 1-3.331 10.53.7.7 0 0 1-.577.3zm-25.705-1.43h25.336a17.065 17.065 0 0 0 2.865-9.4 15.539 15.539 0 1 0-31.066.09 16.922 16.922 0 0 0 2.865 9.31zm1.474-9.72a.712.712 0 0 1-.706-.72 11.9 11.9 0 1 1 23.8-.04.707.707 0 1 1-1.413 0 10.49 10.49 0 1 0-20.975.04.711.711 0 0 1-.706.72z" transform="translate(-708.219 -1617.94)"/></svg><view id="DashboardHover" viewBox="144.64 0 52 46.63"/><svg width="52" height="46.63" viewBox="-10.59 -10.59 55.05 49.36" x="144.64"><defs><style>.fcls-1{fill:#27c4b9;fill-rule:evenodd;filter:url(#ffilter)}</style><filter id="ffilter" x="708.219" y="1617.94" width="33.875" height="28.19" filterUnits="userSpaceOnUse"><feFlood result="flood" flood-color="#27c4b9"/><feComposite result="composite" operator="in" in2="SourceGraphic"/><feBlend result="blend" in2="SourceGraphic"/></filter></defs><path id="fDashboard" class="fcls-1" d="M724.584 1641.82a4.805 4.805 0 0 1-3.13-1.16 4.953 4.953 0 0 1-.546-6.91c1.558-1.85 8.644-4.36 9.446-4.64a.713.713 0 0 1 .688.13.727.727 0 0 1 .237.67c-.144.85-1.46 8.34-3.017 10.19a4.773 4.773 0 0 1-3.678 1.72zm5.085-10.94c-2.961 1.1-6.813 2.76-7.686 3.8a3.44 3.44 0 1 0 5.2 4.5c.877-1.04 1.886-5.17 2.486-8.3zm8.522 15.23h-26.074a.7.7 0 0 1-.576-.3 18.4 18.4 0 0 1-3.333-10.44 16.951 16.951 0 1 1 33.891-.09 18.539 18.539 0 0 1-3.331 10.53.7.7 0 0 1-.577.3zm-25.705-1.43h25.336a17.065 17.065 0 0 0 2.865-9.4 15.539 15.539 0 1 0-31.066.09 16.922 16.922 0 0 0 2.865 9.31zm1.474-9.72a.712.712 0 0 1-.706-.72 11.9 11.9 0 1 1 23.8-.04.707.707 0 1 1-1.413 0 10.49 10.49 0 1 0-20.975.04.711.711 0 0 1-.706.72z" transform="translate(-708.219 -1617.94)"/></svg><view id="Glasses" viewBox="144.64 46.63 52 46.48"/><svg width="52" height="46.48" viewBox="-12.79 -12.79 66.52 59.46" x="144.64" y="46.63"><defs><style>.gcls-1{fill:#5c5d5d;fill-rule:evenodd;filter:url(#gfilter)}</style><filter id="gfilter" x="294.969" y="1615.13" width="40.937" height="33.87" filterUnits="userSpaceOnUse"><feFlood result="flood" flood-color="#1a1a1a"/><feComposite result="composite" operator="in" in2="SourceGraphic"/><feBlend result="blend" in2="SourceGraphic"/></filter></defs><path id="gGlasses" class="gcls-1" d="M335.483 1637.23v-21.38a.711.711 0 0 0-.71-.71h-6.4a.712.712 0 0 0-.711.71.7.7 0 0 0 .711.7h5.684v17.98a9.1 9.1 0 0 0-16.045 3.18h-5.142a9.111 9.111 0 0 0-15.764-3.54v-17.62h5.694a.7.7 0 0 0 .711-.7.712.712 0 0 0-.711-.71h-6.4a.712.712 0 0 0-.711.71v20.45a.729.729 0 0 0 .024.12 8.912 8.912 0 0 0-.735 3.55 9.1 9.1 0 0 0 17.968 1.97h5a9.1 9.1 0 0 0 17.968-1.97 8.938 8.938 0 0 0-.431-2.74zm-31.406 10.36a7.62 7.62 0 1 1 7.676-7.62 7.658 7.658 0 0 1-7.676 7.62zm9.068-7.06c.012-.18.029-.37.029-.56 0-.29-.017-.57-.043-.85h4.631c-.027.28-.043.56-.043.85 0 .19.017.38.028.56h-4.6zm13.671 7.06a7.62 7.62 0 1 1 7.676-7.62 7.658 7.658 0 0 1-7.676 7.62zm-26.716-11.02a.725.725 0 0 0-1 0 .7.7 0 0 0 0 1l7.25 7.2a.709.709 0 1 0 1-1zm6.035 3.76a.731.731 0 0 0 1 0 .706.706 0 0 0 0-1l-2.777-2.76a.723.723 0 0 0-1 0 .7.7 0 0 0 0 1zm22.739 0a.731.731 0 0 0 1 0 .706.706 0 0 0 0-1l-2.777-2.76a.723.723 0 0 0-1 0 .7.7 0 0 0 0 1zm-6.035-3.76a.725.725 0 0 0-1 0 .7.7 0 0 0 0 1l7.25 7.2a.709.709 0 1 0 1-1z" transform="translate(-294.969 -1615.13)"/></svg><view id="GlassesHover" viewBox="0 103.75999999999999 52 46.48"/><svg width="52" height="46.48" viewBox="-12.79 -12.79 66.52 59.46" y="103.76"><defs><style>.hcls-1{fill:#27c4b9;fill-rule:evenodd;filter:url(#hfilter)}</style><filter id="hfilter" x="294.969" y="1615.13" width="40.937" height="33.87" filterUnits="userSpaceOnUse"><feFlood result="flood" flood-color="#27c4b9"/><feComposite result="composite" operator="in" in2="SourceGraphic"/><feBlend result="blend" in2="SourceGraphic"/></filter></defs><path id="hGlasses" class="hcls-1" d="M335.483 1637.23v-21.38a.711.711 0 0 0-.71-.71h-6.4a.712.712 0 0 0-.711.71.7.7 0 0 0 .711.7h5.684v17.98a9.1 9.1 0 0 0-16.045 3.18h-5.142a9.111 9.111 0 0 0-15.764-3.54v-17.62h5.694a.7.7 0 0 0 .711-.7.712.712 0 0 0-.711-.71h-6.4a.712.712 0 0 0-.711.71v20.45a.729.729 0 0 0 .024.12 8.912 8.912 0 0 0-.735 3.55 9.1 9.1 0 0 0 17.968 1.97h5a9.1 9.1 0 0 0 17.968-1.97 8.938 8.938 0 0 0-.431-2.74zm-31.406 10.36a7.62 7.62 0 1 1 7.676-7.62 7.658 7.658 0 0 1-7.676 7.62zm9.068-7.06c.012-.18.029-.37.029-.56 0-.29-.017-.57-.043-.85h4.631c-.027.28-.043.56-.043.85 0 .19.017.38.028.56h-4.6zm13.671 7.06a7.62 7.62 0 1 1 7.676-7.62 7.658 7.658 0 0 1-7.676 7.62zm-26.716-11.02a.725.725 0 0 0-1 0 .7.7 0 0 0 0 1l7.25 7.2a.709.709 0 1 0 1-1zm6.035 3.76a.731.731 0 0 0 1 0 .706.706 0 0 0 0-1l-2.777-2.76a.723.723 0 0 0-1 0 .7.7 0 0 0 0 1zm22.739 0a.731.731 0 0 0 1 0 .706.706 0 0 0 0-1l-2.777-2.76a.723.723 0 0 0-1 0 .7.7 0 0 0 0 1zm-6.035-3.76a.725.725 0 0 0-1 0 .7.7 0 0 0 0 1l7.25 7.2a.709.709 0 1 0 1-1z" transform="translate(-294.969 -1615.13)"/></svg><view id="Idea" viewBox="196.64 0 40.67 52"/><svg width="40.67" height="52" viewBox="-14.1 -14.1 57.36 73.34" x="196.64"><defs><style>.icls-1{fill:#1a1a1a;fill-rule:evenodd}</style></defs><path id="iIdea" class="icls-1" d="M315.226 1423.01a.722.722 0 0 0 1.018 0l3.043-3.03 2.729 2.72a.722.722 0 0 0 1.018 0 .71.71 0 0 0 0-1.01l-3.238-3.23a.74.74 0 0 0-1.017 0l-3.044 3.03-3.359-3.34a.721.721 0 0 0-1.017 0l-3.687 3.67a.71.71 0 0 0 0 1.01.721.721 0 0 0 1.017 0l3.179-3.16zm8.041 10.73v-1.52a4.871 4.871 0 0 1 1.672-3.61 14.479 14.479 0 0 0-9.766-25.25 15.625 15.625 0 0 0-1.663.09 14.6 14.6 0 0 0-12.818 12.78 14.406 14.406 0 0 0 4.977 12.59 4.889 4.889 0 0 1 1.769 3.69v1.23a3.633 3.633 0 0 0 1.216 2.7 11.256 11.256 0 0 1-1.328 5.85 2.538 2.538 0 0 0 2.546 2.53h1.15a4.053 4.053 0 0 0 4.026 3.64h.61a4.053 4.053 0 0 0 4.026-3.64h1.149a2.526 2.526 0 0 0 1.767-4.35 2.508 2.508 0 0 0-.549-4.03 3.633 3.633 0 0 0 1.216-2.7zm-16.659-6a12.9 12.9 0 0 1-4.485-11.36 13.113 13.113 0 0 1 11.546-11.51c.5-.05 1.006-.08 1.5-.08a13.045 13.045 0 0 1 8.8 22.75 6.336 6.336 0 0 0-2.147 4.68v1.52a2.242 2.242 0 0 1-2.248 2.23h-8.454a2.242 2.242 0 0 1-2.249-2.23v-1.23a6.3 6.3 0 0 0-2.263-4.77zm9.05 19.29h-.61a2.632 2.632 0 0 1-2.6-2.21h5.8a2.632 2.632 0 0 1-2.59 2.21zm6.282-4.74a1.1 1.1 0 0 1-1.107 1.1h-10.961a1.1 1.1 0 1 1 0-2.2h10.961a1.1 1.1 0 0 1 1.107 1.1zm-12.068-2.53a1.105 1.105 0 1 1 0-2.21h10.961a1.105 1.105 0 1 1 0 2.21h-10.961z" transform="translate(-300.594 -1403.34)"/></svg><view id="IdeaHover" viewBox="0 0 40.67 52"/><svg width="40.67" height="52" viewBox="-14.1 -14.1 57.36 73.34"><defs><style>.jcls-1{fill:#27c4b9;fill-rule:evenodd}</style></defs><path id="jIdea" class="jcls-1" d="M315.226 1423.01a.722.722 0 0 0 1.018 0l3.043-3.03 2.729 2.72a.722.722 0 0 0 1.018 0 .71.71 0 0 0 0-1.01l-3.238-3.23a.74.74 0 0 0-1.017 0l-3.044 3.03-3.359-3.34a.721.721 0 0 0-1.017 0l-3.687 3.67a.71.71 0 0 0 0 1.01.721.721 0 0 0 1.017 0l3.179-3.16zm8.041 10.73v-1.52a4.871 4.871 0 0 1 1.672-3.61 14.479 14.479 0 0 0-9.766-25.25 15.625 15.625 0 0 0-1.663.09 14.6 14.6 0 0 0-12.818 12.78 14.406 14.406 0 0 0 4.977 12.59 4.889 4.889 0 0 1 1.769 3.69v1.23a3.633 3.633 0 0 0 1.216 2.7 11.256 11.256 0 0 1-1.328 5.85 2.538 2.538 0 0 0 2.546 2.53h1.15a4.053 4.053 0 0 0 4.026 3.64h.61a4.053 4.053 0 0 0 4.026-3.64h1.149a2.526 2.526 0 0 0 1.767-4.35 2.508 2.508 0 0 0-.549-4.03 3.633 3.633 0 0 0 1.216-2.7zm-16.659-6a12.9 12.9 0 0 1-4.485-11.36 13.113 13.113 0 0 1 11.546-11.51c.5-.05 1.006-.08 1.5-.08a13.045 13.045 0 0 1 8.8 22.75 6.336 6.336 0 0 0-2.147 4.68v1.52a2.242 2.242 0 0 1-2.248 2.23h-8.454a2.242 2.242 0 0 1-2.249-2.23v-1.23a6.3 6.3 0 0 0-2.263-4.77zm9.05 19.29h-.61a2.632 2.632 0 0 1-2.6-2.21h5.8a2.632 2.632 0 0 1-2.59 2.21zm6.282-4.74a1.1 1.1 0 0 1-1.107 1.1h-10.961a1.1 1.1 0 1 1 0-2.2h10.961a1.1 1.1 0 0 1 1.107 1.1zm-12.068-2.53a1.105 1.105 0 1 1 0-2.21h10.961a1.105 1.105 0 1 1 0 2.21h-10.961z" transform="translate(-300.594 -1403.34)"/></svg><view id="Music" viewBox="237.31 0 52 51.98"/><svg width="52" height="51.98" viewBox="-12.35 -12.35 64.24 64.21" x="237.31"><defs><style>.kcls-1{fill:#5c5d5d;fill-rule:evenodd;filter:url(#kfilter)}</style><filter id="kfilter" x="1118.5" y="1406" width="39.53" height="39.5" filterUnits="userSpaceOnUse"><feFlood result="flood" flood-color="#1a1a1a"/><feComposite result="composite" operator="in" in2="SourceGraphic"/><feBlend result="blend" in2="SourceGraphic"/></filter></defs><path id="kMusic" class="kcls-1" d="M1157.3 1420.34h-7.51v-6.42a.715.715 0 0 0-.72-.71h-21.61a.715.715 0 0 0-.72.71v6.42h-3.71v-13.64a.71.71 0 0 0-1.42 0v13.64h-2.39a.713.713 0 0 0-.71.71v23.75a.7.7 0 0 0 .71.7h38.08a.707.707 0 0 0 .72-.7v-23.75a.715.715 0 0 0-.72-.71zm-29.13-5.72h20.19v5.72h-20.19v-5.72zm28.42 29.47h-36.65v-22.34h36.65v22.34zm-9.4-15.75a7.171 7.171 0 1 0 7.26 7.17 7.221 7.221 0 0 0-7.26-7.17zm0 12.93a5.76 5.76 0 1 1 5.83-5.76 5.8 5.8 0 0 1-5.83 5.76zm-24.54-16.46a.715.715 0 0 0 .72.71h28.94a.71.71 0 0 0 0-1.42h-28.94a.715.715 0 0 0-.72.71zm13.21 7.29h-12.49a.707.707 0 0 0-.72.7v7.76a.715.715 0 0 0 .72.71h12.49a.713.713 0 0 0 .71-.71v-7.76a.7.7 0 0 0-.71-.7zm-.72 7.76h-11.06v-6.35h11.06v6.35zm12.05-7.17a2.82 2.82 0 1 0 2.86 2.82 2.838 2.838 0 0 0-2.86-2.82z" transform="translate(-1118.5 -1406)"/></svg><view id="MusicHover" viewBox="237.31 51.98 52 51.98"/><svg width="52" height="51.98" viewBox="-12.35 -12.35 64.24 64.21" x="237.31" y="51.98"><defs><style>.lcls-1{fill:#27c4b9;fill-rule:evenodd;filter:url(#lfilter)}</style><filter id="lfilter" x="1118.5" y="1406" width="39.53" height="39.5" filterUnits="userSpaceOnUse"><feFlood result="flood" flood-color="#27c4b9"/><feComposite result="composite" operator="in" in2="SourceGraphic"/><feBlend result="blend" in2="SourceGraphic"/></filter></defs><path id="lMusic" class="lcls-1" d="M1157.3 1420.34h-7.51v-6.42a.715.715 0 0 0-.72-.71h-21.61a.715.715 0 0 0-.72.71v6.42h-3.71v-13.64a.71.71 0 0 0-1.42 0v13.64h-2.39a.713.713 0 0 0-.71.71v23.75a.7.7 0 0 0 .71.7h38.08a.707.707 0 0 0 .72-.7v-23.75a.715.715 0 0 0-.72-.71zm-29.13-5.72h20.19v5.72h-20.19v-5.72zm28.42 29.47h-36.65v-22.34h36.65v22.34zm-9.4-15.75a7.171 7.171 0 1 0 7.26 7.17 7.221 7.221 0 0 0-7.26-7.17zm0 12.93a5.76 5.76 0 1 1 5.83-5.76 5.8 5.8 0 0 1-5.83 5.76zm-24.54-16.46a.715.715 0 0 0 .72.71h28.94a.71.71 0 0 0 0-1.42h-28.94a.715.715 0 0 0-.72.71zm13.21 7.29h-12.49a.707.707 0 0 0-.72.7v7.76a.715.715 0 0 0 .72.71h12.49a.713.713 0 0 0 .71-.71v-7.76a.7.7 0 0 0-.71-.7zm-.72 7.76h-11.06v-6.35h11.06v6.35zm12.05-7.17a2.82 2.82 0 1 0 2.86 2.82 2.838 2.838 0 0 0-2.86-2.82z" transform="translate(-1118.5 -1406)"/></svg><view id="Photo" viewBox="52 150.23999999999998 50.78 49.31"/><svg width="50.78" height="49.31" viewBox="-10 -10 50.78 49.31" x="52" y="150.24"><defs><style>.mcls-1{fill:#27c4b9;fill-rule:evenodd}</style></defs><path id="mPhoto" class="mcls-1" d="M482.238 892.816a1.762 1.762 0 1 1-1.762-1.729 1.746 1.746 0 0 1 1.762 1.729zM470.4 909.081a5.214 5.214 0 1 1 5.314-5.213 5.27 5.27 0 0 1-5.314 5.213zm0-9.265a4.052 4.052 0 1 0 4.129 4.052 4.095 4.095 0 0 0-4.129-4.052zm12.733-12.074h-8v-1.549a2.545 2.545 0 0 0-2.567-2.518h-4.343a2.545 2.545 0 0 0-2.566 2.518v1.549h-7.994a2.644 2.644 0 0 0-2.663 2.615v16.852a2.644 2.644 0 0 0 2.665 2.615h5.4a.607.607 0 0 0 .238-.05 9.407 9.407 0 0 0 14.2 0 .582.582 0 0 0 .244.055h5.386a2.644 2.644 0 0 0 2.665-2.615v-16.857a2.644 2.644 0 0 0-2.668-2.615zm-16.286-1.549a1.37 1.37 0 0 1 1.381-1.356h4.343a1.37 1.37 0 0 1 1.382 1.356v1.549h-7.106v-1.549zm3.553 25.653a7.98 7.98 0 1 1 8.131-7.978 8.065 8.065 0 0 1-8.131 7.978zm14.213-4.637a1.469 1.469 0 0 1-1.48 1.453h-4.816a8.95 8.95 0 0 0 1.4-4.794 9.318 9.318 0 0 0-18.632 0 8.95 8.95 0 0 0 1.4 4.794h-4.815a1.469 1.469 0 0 1-1.481-1.453v-16.852a1.468 1.468 0 0 1 1.481-1.452h25.46a1.468 1.468 0 0 1 1.48 1.452v16.852zm-23.392-12.493h-1.777a.881.881 0 0 1-.888-.872V892.1a.88.88 0 0 1 .888-.872h1.777a.88.88 0 0 1 .888.872v1.743a.881.881 0 0 1-.891.873z" transform="translate(-455 -883.688)"/></svg><view id="Portfolio" viewBox="237.31 152.22 52 48.26"/><svg width="52" height="48.26" viewBox="-11.47 -11.47 59.67 55.38" x="237.31" y="152.22"><defs><style>.ncls-1{fill:#5c5d5d;fill-rule:evenodd;filter:url(#nfilter)}</style><filter id="nfilter" x="706.781" y="1409.88" width="36.719" height="32.43" filterUnits="userSpaceOnUse"><feFlood result="flood" flood-color="#1a1a1a"/><feComposite result="composite" operator="in" in2="SourceGraphic"/><feBlend result="blend" in2="SourceGraphic"/></filter></defs><path id="nPortfolio" class="ncls-1" d="M739.864 1418.34h-4.825v-5.41a3.059 3.059 0 0 0-3.06-3.05h-13.65a3.059 3.059 0 0 0-3.06 3.05v5.41h-4.825a3.647 3.647 0 0 0-3.648 3.64v16.7a3.647 3.647 0 0 0 3.648 3.64h29.42a3.647 3.647 0 0 0 3.648-3.64v-16.7a3.647 3.647 0 0 0-3.648-3.64zm-23.183-5.41a1.642 1.642 0 0 1 1.648-1.64h13.65a1.642 1.642 0 0 1 1.648 1.64v5.41h-16.946v-5.41zm25.418 25.75a2.234 2.234 0 0 1-2.235 2.23h-29.42a2.235 2.235 0 0 1-2.236-2.23v-4.82h12.709v2.11a.71.71 0 0 0 .707.71h7.06a.709.709 0 0 0 .706-.71v-2.11h12.71v4.82zm-14.121-6.23v2.82h-5.648v-5.64h5.648v2.82zm14.121 0H729.39v-3.53a.7.7 0 0 0-.706-.7h-7.06a.7.7 0 0 0-.707.7v3.53h-12.709v-10.47a2.235 2.235 0 0 1 2.236-2.23h29.42a2.234 2.234 0 0 1 2.235 2.23v10.47z" transform="translate(-706.781 -1409.88)"/></svg><view id="PortfolioHover" viewBox="237.31 103.96 52 48.26"/><svg width="52" height="48.26" viewBox="-11.47 -11.47 59.67 55.38" x="237.31" y="103.96"><defs><style>.ocls-1{fill:#27c4b9;fill-rule:evenodd;filter:url(#ofilter)}</style><filter id="ofilter" x="706.781" y="1409.88" width="36.719" height="32.43" filterUnits="userSpaceOnUse"><feFlood result="flood" flood-color="#27c4b9"/><feComposite result="composite" operator="in" in2="SourceGraphic"/><feBlend result="blend" in2="SourceGraphic"/></filter></defs><path id="oPortfolio" class="ocls-1" d="M739.864 1418.34h-4.825v-5.41a3.059 3.059 0 0 0-3.06-3.05h-13.65a3.059 3.059 0 0 0-3.06 3.05v5.41h-4.825a3.647 3.647 0 0 0-3.648 3.64v16.7a3.647 3.647 0 0 0 3.648 3.64h29.42a3.647 3.647 0 0 0 3.648-3.64v-16.7a3.647 3.647 0 0 0-3.648-3.64zm-23.183-5.41a1.642 1.642 0 0 1 1.648-1.64h13.65a1.642 1.642 0 0 1 1.648 1.64v5.41h-16.946v-5.41zm25.418 25.75a2.234 2.234 0 0 1-2.235 2.23h-29.42a2.235 2.235 0 0 1-2.236-2.23v-4.82h12.709v2.11a.71.71 0 0 0 .707.71h7.06a.709.709 0 0 0 .706-.71v-2.11h12.71v4.82zm-14.121-6.23v2.82h-5.648v-5.64h5.648v2.82zm14.121 0H729.39v-3.53a.7.7 0 0 0-.706-.7h-7.06a.7.7 0 0 0-.707.7v3.53h-12.709v-10.47a2.235 2.235 0 0 1 2.236-2.23h29.42a2.234 2.234 0 0 1 2.235 2.23v10.47z" transform="translate(-706.781 -1409.88)"/></svg><view id="Settings" viewBox="0 150.23999999999998 52 51.76"/><svg width="52" height="51.76" viewBox="-10.59 -10.59 55.06 54.81" y="150.24"><defs><style>.pcls-1{fill:#1a1a1a;fill-rule:evenodd}</style></defs><path id="pSettings" class="pcls-1" d="M1138.71 1640.4a7.78 7.78 0 1 1 7.75-7.78 7.776 7.776 0 0 1-7.75 7.78zm0-14.18a6.405 6.405 0 1 0 6.38 6.4 6.4 6.4 0 0 0-6.38-6.4zm-3.77 22.67a.772.772 0 0 1-.15-.02 16.871 16.871 0 0 1-6.8-3.28.659.659 0 0 1-.26-.47.71.71 0 0 1 .15-.52l.97-1.21a14.959 14.959 0 0 1-3.23-4.06l-1.4.68a.692.692 0 0 1-.94-.32 17.051 17.051 0 0 1-1.69-7.38.717.717 0 0 1 .7-.71h1.54a14.748 14.748 0 0 1 1.16-5.06l-1.41-.68a.677.677 0 0 1-.36-.4.721.721 0 0 1 .03-.54 17.332 17.332 0 0 1 4.69-5.92.681.681 0 0 1 .98.11l.97 1.21a14.761 14.761 0 0 1 4.65-2.26l-.34-1.52a.722.722 0 0 1 .08-.54.736.736 0 0 1 .44-.31 17.236 17.236 0 0 1 7.53-.02.694.694 0 0 1 .53.84l-.33 1.52a14.651 14.651 0 0 1 4.66 2.24l.96-1.22a.7.7 0 0 1 .47-.26.737.737 0 0 1 .52.14 17.251 17.251 0 0 1 4.72 5.9.71.71 0 0 1-.32.94l-1.4.69a14.829 14.829 0 0 1 1.18 5.07l1.53-.02h.01a.768.768 0 0 1 .5.2.744.744 0 0 1 .2.51 17.023 17.023 0 0 1-1.67 7.44.71.71 0 0 1-.4.36.721.721 0 0 1-.54-.03l-1.4-.68a14.923 14.923 0 0 1-3.22 4.06l.97 1.21a.71.71 0 0 1-.11.99 17.065 17.065 0 0 1-6.79 3.3.7.7 0 0 1-.84-.53l-.34-1.52a14.26 14.26 0 0 1-5.17 0l-.34 1.52a.736.736 0 0 1-.31.44.758.758 0 0 1-.38.11zm-5.52-3.97a15.635 15.635 0 0 0 5 2.41l.33-1.49a.7.7 0 0 1 .31-.44.708.708 0 0 1 .53-.09 13.008 13.008 0 0 0 5.92-.01.708.708 0 0 1 .53.09.7.7 0 0 1 .31.44l.34 1.49a15.61 15.61 0 0 0 4.99-2.42l-.95-1.19a.711.711 0 0 1 .11-.99 13.5 13.5 0 0 0 3.69-4.65.693.693 0 0 1 .93-.33l1.38.67a15.612 15.612 0 0 0 1.23-5.48l-1.5.02h-.01a.68.68 0 0 1-.49-.2.672.672 0 0 1-.21-.5 13.289 13.289 0 0 0-1.36-5.82.7.7 0 0 1 .33-.94l1.37-.67a15.807 15.807 0 0 0-3.47-4.33l-.95 1.19a.691.691 0 0 1-.98.12 13.124 13.124 0 0 0-5.34-2.57.694.694 0 0 1-.53-.84l.33-1.49a15.861 15.861 0 0 0-5.54.02l.35 1.49a.757.757 0 0 1-.09.53.7.7 0 0 1-.44.31 13.452 13.452 0 0 0-5.33 2.59.688.688 0 0 1-.98-.1l-.95-1.19a15.975 15.975 0 0 0-3.45 4.35l1.38.67a.71.71 0 0 1 .33.94 13.2 13.2 0 0 0-1.32 5.76.731.731 0 0 1-.7.74h-1.51a15.521 15.521 0 0 0 1.24 5.42l1.37-.66a.681.681 0 0 1 .54-.04.71.71 0 0 1 .4.36 13.62 13.62 0 0 0 3.69 4.65.707.707 0 0 1 .27.47.758.758 0 0 1-.15.52z" transform="translate(-1121.59 -1615.28)"/></svg><view id="SettingsHover" viewBox="0 52 52 51.76"/><svg width="52" height="51.76" viewBox="-10.59 -10.59 55.06 54.81" y="52"><defs><style>.qcls-1{fill:#27c4b9;fill-rule:evenodd}</style></defs><path id="qSettings" class="qcls-1" d="M1138.71 1640.4a7.78 7.78 0 1 1 7.75-7.78 7.776 7.776 0 0 1-7.75 7.78zm0-14.18a6.405 6.405 0 1 0 6.38 6.4 6.4 6.4 0 0 0-6.38-6.4zm-3.77 22.67a.772.772 0 0 1-.15-.02 16.871 16.871 0 0 1-6.8-3.28.659.659 0 0 1-.26-.47.71.71 0 0 1 .15-.52l.97-1.21a14.959 14.959 0 0 1-3.23-4.06l-1.4.68a.692.692 0 0 1-.94-.32 17.051 17.051 0 0 1-1.69-7.38.717.717 0 0 1 .7-.71h1.54a14.748 14.748 0 0 1 1.16-5.06l-1.41-.68a.677.677 0 0 1-.36-.4.721.721 0 0 1 .03-.54 17.332 17.332 0 0 1 4.69-5.92.681.681 0 0 1 .98.11l.97 1.21a14.761 14.761 0 0 1 4.65-2.26l-.34-1.52a.722.722 0 0 1 .08-.54.736.736 0 0 1 .44-.31 17.236 17.236 0 0 1 7.53-.02.694.694 0 0 1 .53.84l-.33 1.52a14.651 14.651 0 0 1 4.66 2.24l.96-1.22a.7.7 0 0 1 .47-.26.737.737 0 0 1 .52.14 17.251 17.251 0 0 1 4.72 5.9.71.71 0 0 1-.32.94l-1.4.69a14.829 14.829 0 0 1 1.18 5.07l1.53-.02h.01a.768.768 0 0 1 .5.2.744.744 0 0 1 .2.51 17.023 17.023 0 0 1-1.67 7.44.71.71 0 0 1-.4.36.721.721 0 0 1-.54-.03l-1.4-.68a14.923 14.923 0 0 1-3.22 4.06l.97 1.21a.71.71 0 0 1-.11.99 17.065 17.065 0 0 1-6.79 3.3.7.7 0 0 1-.84-.53l-.34-1.52a14.26 14.26 0 0 1-5.17 0l-.34 1.52a.736.736 0 0 1-.31.44.758.758 0 0 1-.38.11zm-5.52-3.97a15.635 15.635 0 0 0 5 2.41l.33-1.49a.7.7 0 0 1 .31-.44.708.708 0 0 1 .53-.09 13.008 13.008 0 0 0 5.92-.01.708.708 0 0 1 .53.09.7.7 0 0 1 .31.44l.34 1.49a15.61 15.61 0 0 0 4.99-2.42l-.95-1.19a.711.711 0 0 1 .11-.99 13.5 13.5 0 0 0 3.69-4.65.693.693 0 0 1 .93-.33l1.38.67a15.612 15.612 0 0 0 1.23-5.48l-1.5.02h-.01a.68.68 0 0 1-.49-.2.672.672 0 0 1-.21-.5 13.289 13.289 0 0 0-1.36-5.82.7.7 0 0 1 .33-.94l1.37-.67a15.807 15.807 0 0 0-3.47-4.33l-.95 1.19a.691.691 0 0 1-.98.12 13.124 13.124 0 0 0-5.34-2.57.694.694 0 0 1-.53-.84l.33-1.49a15.861 15.861 0 0 0-5.54.02l.35 1.49a.757.757 0 0 1-.09.53.7.7 0 0 1-.44.31 13.452 13.452 0 0 0-5.33 2.59.688.688 0 0 1-.98-.1l-.95-1.19a15.975 15.975 0 0 0-3.45 4.35l1.38.67a.71.71 0 0 1 .33.94 13.2 13.2 0 0 0-1.32 5.76.731.731 0 0 1-.7.74h-1.51a15.521 15.521 0 0 0 1.24 5.42l1.37-.66a.681.681 0 0 1 .54-.04.71.71 0 0 1 .4.36 13.62 13.62 0 0 0 3.69 4.65.707.707 0 0 1 .27.47.758.758 0 0 1-.15.52z" transform="translate(-1121.59 -1615.28)"/></svg><view id="Top" viewBox="52 103.75999999999999 43.97 44"/><svg width="43.97" height="44" viewBox="-10 -10 43.97 44" x="52" y="103.76"><defs><style>.rcls-1{fill:#fff;fill-rule:evenodd}</style></defs><path id="rTop" class="rcls-1" d="M841.521 790.485a12 12 0 1 0 0-16.971 11.955 11.955 0 0 0 0 16.971zm.707-16.263a11 11 0 1 1 0 15.556 10.919 10.919 0 0 1 0-15.556zm7.684 13.254a.682.682 0 0 0 1.182 0l1.31-2.27a.683.683 0 0 0-.591-1.024H851V776a.5.5 0 1 0-1 0v8.183h-.81a.683.683 0 0 0-.592 1.024z" transform="translate(-838.031 -770)"/></svg></svg>